{"title":"Power Rangers Super Megaforce S21 E20 Legendary Battle WEB-DL","uid":11547095,"size":261770323,"categoryP":"video","categoryS":"tv_shows","magnet":"?xt=urn:btih:f384f1aa043d44830ad0009886a0d5e0fb1eb514&amp;dn=Power+Rangers+Super+Megaforce+S21+E20+Legendary+Battle+WEB-DL&amp;tr=udp%3A%2F%2Ftracker.openbittorrent.com%3A80&amp;tr=udp%3A%2F%2Fopen.demonii.com%3A1337&amp;tr=udp%3A%2F%2Ftracker.coppersurfer.tk%3A6969&amp;tr=udp%3A%2F%2Fexodus.desync.com%3A6969","seeders":6,"leechers":0,"uploader":"jmanwf","files":-1,"time":1416747897,"description":"The Emperor unleashes another massive attack on Earth and nearly defeats the Rangers, but against all odds they remain defiant and are rewarded with the help of all the Legendary Rangers from years past.\n\n\nFormat : MPEG-4\nFormat profile : Base Media\nCodec ID : isom\nFile size : 250 MiB\nDuration : 23mn 35s\nOverall bit rate mode : Variable\nOverall bit rate : 1 479 Kbps\nEncoded date : UTC 2014-11-23 10:44:20\nTagged date : UTC 2014-11-23 10:44:20\n\nVideo\nID : 1\nFormat : AVC\nFormat/Info : Advanced Video Codec\nFormat profile : &lt;a class=&quot;__cf_email__&quot; href=&quot;/cdn-cgi/l/email-protection&quot; data-cfemail=&quot;5810313f3018146b7669&quot;&gt;[email&amp;#160;protected]&lt;/a&gt;&lt;script cf-hash='f9e31' type=&quot;text/javascript&quot;&gt;\n/* &lt;![CDATA[ */!function(){try{var t=&quot;currentScript&quot;in document?document.currentScript:function(){for(var t=document.getElementsByTagName(&quot;script&quot;),e=t.length;e--;)if(t[e].getAttribute(&quot;cf-hash&quot;))return t[e]}();if(t&amp;&amp;t.previousSibling){var e,r,n,i,c=t.previousSibling,a=c.getAttribute(&quot;data-cfemail&quot;);if(a){for(e=&quot;&quot;,r=parseInt(a.substr(0,2),16),n=2;a.length-n;n+=2)i=parseInt(a.substr(n,2),16)^r,e+=String.fromCharCode(i);e=document.createTextNode(e),c.parentNode.replaceChild(e,c)}}}catch(u){}}();/* ]]&gt; */&lt;/script&gt;\nFormat settings, CABAC : Yes\nFormat settings, ReFrames : 5 frames\nCodec ID : avc1\nCodec ID/Info : Advanced Video Coding\nDuration : 23mn 35s\nBit rate : 1 412 Kbps\nMaximum bit rate : 3 531 Kbps\nWidth : 1 280 pixels\nHeight : 720 pixels\nDisplay aspect ratio : 16:9\nFrame rate mode : Constant\nFrame rate : 23.976 fps\nColor space : YUV\nChroma subsampling : 4:2:0\nBit depth : 8 bits\nScan type : Progressive\nBits/(Pixel*Frame) : 0.064\nStream size : 238 MiB (95%)\nEncoded date : UTC 2014-11-23 10:44:20\nTagged date : UTC 2014-11-23 10:44:23\n\nAudio\nID : 2\nFormat : AAC\nFormat/Info : Advanced Audio Codec\nFormat profile : HE-AAC / LC\nCodec ID : 40\nDuration : 23mn 35s\nBit rate mode : Variable\nBit rate : 64.0 Kbps\nMaximum bit rate : 70.8 Kbps\nChannel(s) : 2 channels\nChannel positions : Front: L R\nSampling rate : 48.0 KHz / 24.0 KHz\nCompression mode : Lossy\nStream size : 10.8 MiB (4%)\nEncoded date : UTC 2014-11-23 10:44:23\nTagged date : UTC 2014-11-23 10:44:23","torrent":{"xt":"urn:btih:f384f1aa043d44830ad0009886a0d5e0fb1eb514","amp;dn":"Power+Rangers+Super+Megaforce+S21+E20+Legendary+Battle+WEB-DL","amp;tr":["udp%3A%2F%2Ftracker.openbittorrent.com%3A80","udp%3A%2F%2Fopen.demonii.com%3A1337","udp%3A%2F%2Ftracker.coppersurfer.tk%3A6969","udp%3A%2F%2Fexodus.desync.com%3A6969"],"infoHash":"f384f1aa043d44830ad0009886a0d5e0fb1eb514","infoHashBuffer":{"type":"Buffer","data":[243,132,241,170,4,61,68,131,10,208,0,152,134,160,213,224,251,30,181,20]},"announce":[],"urlList":[]}}